<svg width="1024" height="1024" viewBox="0 0 1024 1024" fill="none" xmlns="http://www.w3.org/2000/svg">
<g clip-path="url(#clip0_98_149)">
<rect width="1024" height="1024" rx="153" fill="#04070B"/>
<g filter="url(#filter0_d_98_149)">
<path fill-rule="evenodd" clip-rule="evenodd" d="M555.929 209.406C562.789 211.563 568.782 215.853 573.036 221.651C577.29 227.449 579.584 234.452 579.584 241.643V410.603H714.751C720.932 410.6 726.996 412.293 732.281 415.496C737.567 418.7 741.873 423.293 744.731 428.774C747.588 434.255 748.887 440.415 748.487 446.583C748.086 452.751 746.002 458.691 742.46 463.757L505.917 801.675C501.801 807.573 495.909 812.004 489.101 814.322C482.292 816.641 474.921 816.726 468.06 814.566C461.2 812.406 455.207 808.114 450.955 802.313C446.702 796.512 444.412 789.505 444.416 782.313V613.354H309.249C303.068 613.356 297.004 611.664 291.718 608.46C286.432 605.256 282.127 600.663 279.269 595.182C276.412 589.701 275.113 583.541 275.513 577.373C275.913 571.205 277.998 565.265 281.54 560.199L518.082 222.281C522.205 216.394 528.098 211.975 534.904 209.665C541.71 207.356 549.075 207.277 555.929 209.44V209.406Z" fill="#FFCA63"/>
<path fill-rule="evenodd" clip-rule="evenodd" d="M555.929 209.406C562.789 211.563 568.782 215.853 573.036 221.651C577.29 227.449 579.584 234.452 579.584 241.643V410.603H714.751C720.932 410.6 726.996 412.293 732.281 415.496C737.567 418.7 741.873 423.293 744.731 428.774C747.588 434.255 748.887 440.415 748.487 446.583C748.086 452.751 746.002 458.691 742.46 463.757L505.917 801.675C501.801 807.573 495.909 812.004 489.101 814.322C482.292 816.641 474.921 816.726 468.06 814.566C461.2 812.406 455.207 808.114 450.955 802.313C446.702 796.512 444.412 789.505 444.416 782.313V613.354H309.249C303.068 613.356 297.004 611.664 291.718 608.46C286.432 605.256 282.127 600.663 279.269 595.182C276.412 589.701 275.113 583.541 275.513 577.373C275.913 571.205 277.998 565.265 281.54 560.199L518.082 222.281C522.205 216.394 528.098 211.975 534.904 209.665C541.71 207.356 549.075 207.277 555.929 209.44V209.406Z" stroke="#FFCA63"/>
</g>
</g>
<defs>
<filter id="filter0_d_98_149" x="75.4421" y="7.87378" width="873.116" height="1008.25" filterUnits="userSpaceOnUse" color-interpolation-filters="sRGB">
<feFlood flood-opacity="0" result="BackgroundImageFix"/>
<feColorMatrix in="SourceAlpha" type="matrix" values="0 0 0 0 0 0 0 0 0 0 0 0 0 0 0 0 0 0 127 0" result="hardAlpha"/>
<feOffset/>
<feGaussianBlur stdDeviation="100"/>
<feComposite in2="hardAlpha" operator="out"/>
<feColorMatrix type="matrix" values="0 0 0 0 1 0 0 0 0 0.792157 0 0 0 0 0.388235 0 0 0 0.2 0"/>
<feBlend mode="normal" in2="BackgroundImageFix" result="effect1_dropShadow_98_149"/>
<feBlend mode="normal" in="SourceGraphic" in2="effect1_dropShadow_98_149" result="shape"/>
</filter>
<clipPath id="clip0_98_149">
<rect width="1024" height="1024" fill="white"/>
</clipPath>
</defs>
</svg>
