<svg width="819" height="819" viewBox="0 0 819 819" fill="none" xmlns="http://www.w3.org/2000/svg">
<rect width="819" height="819" rx="150" fill="#161B22"/>
<path d="M128 161H168" stroke="#47505A" stroke-opacity="0.27" stroke-width="41" stroke-linecap="round"/>
<path d="M251 670L324 670" stroke="#47505A" stroke-opacity="0.27" stroke-width="41" stroke-linecap="round"/>
<path d="M372 234L421 234" stroke="#47505A" stroke-opacity="0.27" stroke-width="41" stroke-linecap="round"/>
<path d="M239 295L288 295" stroke="#47505A" stroke-opacity="0.27" stroke-width="41" stroke-linecap="round"/>
<path d="M191 355L288 355" stroke="#47505A" stroke-opacity="0.27" stroke-width="41" stroke-linecap="round"/>
<path d="M433 355L494 355" stroke="#47505A" stroke-opacity="0.27" stroke-width="41" stroke-linecap="round"/>
<path d="M554 355L700 355" stroke="#47505A" stroke-opacity="0.27" stroke-width="41" stroke-linecap="round"/>
<path d="M336 731L482 731" stroke="#47505A" stroke-opacity="0.27" stroke-width="41" stroke-linecap="round"/>
<path d="M603 731L542 731" stroke="#47505A" stroke-opacity="0.27" stroke-width="41" stroke-linecap="round"/>
<path d="M482 670L627 670" stroke="#47505A" stroke-opacity="0.27" stroke-width="41" stroke-linecap="round"/>
<path d="M372 416L421 416" stroke="#47505A" stroke-opacity="0.27" stroke-width="41" stroke-linecap="round"/>
<path d="M566 476L615 476" stroke="#30363D" stroke-opacity="0.44" stroke-width="41" stroke-linecap="round"/>
<path d="M445 537L554 537" stroke="#47505A" stroke-opacity="0.27" stroke-width="41" stroke-linecap="round"/>
<path d="M663 537L603 537" stroke="#47505A" stroke-opacity="0.27" stroke-width="41" stroke-linecap="round"/>
<path d="M227 476L300 476" stroke="#47505A" stroke-opacity="0.27" stroke-width="41" stroke-linecap="round"/>
<path d="M288 537L239 537" stroke="#47505A" stroke-opacity="0.27" stroke-width="41" stroke-linecap="round"/>
<path d="M336 161L554 161" stroke="#47505A" stroke-opacity="0.27" stroke-width="41" stroke-linecap="round"/>
<path d="M409 89L542 89" stroke="#47505A" stroke-opacity="0.27" stroke-width="41" stroke-linecap="round"/>
<path d="M119 88L178 88" stroke="#47505A" stroke-opacity="0.27" stroke-width="41" stroke-linecap="round"/>
<path d="M215 161H276" stroke="#47505A" stroke-opacity="0.27" stroke-width="41" stroke-linecap="round"/>
<path d="M119 670.242L190.716 670.194" stroke="#47505A" stroke-opacity="0.27" stroke-width="41" stroke-linecap="round"/>
<path d="M385 670H409" stroke="#47505A" stroke-opacity="0.27" stroke-width="41" stroke-linecap="round"/>
<path d="M130 234H312" stroke="#A0AAB6" stroke-width="41" stroke-linecap="round"/>
<path d="M130 295H179" stroke="#A0AAB6" stroke-width="41" stroke-linecap="round"/>
<path d="M130 355H142" stroke="#A0AAB6" stroke-width="41" stroke-linecap="round"/>
<path d="M130 416H191" stroke="#A0AAB6" stroke-width="41" stroke-linecap="round"/>
<path d="M130 476H179" stroke="#A0AAB6" stroke-width="41" stroke-linecap="round"/>
<path d="M130 537H191" stroke="#A0AAB6" stroke-width="41" stroke-linecap="round"/>
<path d="M336 537H397" stroke="#A0AAB6" stroke-width="41" stroke-linecap="round"/>
<path d="M348 476H385" stroke="#A0AAB6" stroke-width="41" stroke-linecap="round"/>
<path d="M130 597H154" stroke="#A0AAB6" stroke-width="41" stroke-linecap="round"/>
<path d="M215 597H348" stroke="#A0AAB6" stroke-width="41" stroke-linecap="round"/>
<path d="M445 597H615" stroke="#A0AAB6" stroke-width="41" stroke-linecap="round"/>
<path d="M663 597H700" stroke="#A0AAB6" stroke-width="41" stroke-linecap="round"/>
<path d="M251 416H312" stroke="#A0AAB6" stroke-width="41" stroke-linecap="round"/>
<path d="M469 416H530" stroke="#A0AAB6" stroke-width="41" stroke-linecap="round"/>
<path d="M469 476L615 476" stroke="#A0AAB6" stroke-width="41" stroke-linecap="round"/>
<path d="M663 476H700" stroke="#A0AAB6" stroke-width="41" stroke-linecap="round"/>
<path d="M578 416H688" stroke="#A0AAB6" stroke-width="41" stroke-linecap="round"/>
<path d="M336 355H372" stroke="#A0AAB6" stroke-width="41" stroke-linecap="round"/>
<path d="M336 295H372" stroke="#A0AAB6" stroke-width="41" stroke-linecap="round"/>
<path d="M469 234H700" stroke="#A0AAB6" stroke-width="41" stroke-linecap="round"/>
<path d="M469 295H566" stroke="#A0AAB6" stroke-width="41" stroke-linecap="round"/>
<path d="M700 295L627 295" stroke="#A0AAB6" stroke-width="41" stroke-linecap="round"/>
<path d="M348 89L251 89" stroke="#47505A" stroke-opacity="0.27" stroke-width="41" stroke-linecap="round"/>
<path d="M263.424 730.785L119 730.583" stroke="#47505A" stroke-opacity="0.27" stroke-width="41" stroke-linecap="round"/>
</svg>
